HIERARCHY
ROOT Hips
{
	OFFSET 0.053599 88.859886 3.107447
	CHANNELS 6 Xposition Yposition Zposition Zrotation Yrotation Xrotation 
	JOINT Spine
	{
		OFFSET -0.000000 8.814246 -2.080107
		CHANNELS 3 Zrotation Yrotation Xrotation
		JOINT Spine1
		{
			OFFSET 0.000000 8.844141 0.000000
			CHANNELS 3 Zrotation Yrotation Xrotation
			JOINT Spine2
			{
				OFFSET -0.000000 11.682268 0.000000
				CHANNELS 3 Zrotation Yrotation Xrotation
				JOINT Spine3
				{
					OFFSET 0.000000 11.746700 0.000000
					CHANNELS 3 Zrotation Yrotation Xrotation
					JOINT Neck
					{
						OFFSET -0.000000 17.658264 -0.000000
						CHANNELS 3 Zrotation Yrotation Xrotation
						JOINT Neck1
						{
							OFFSET -0.000000 5.101515 -0.000000
							CHANNELS 3 Zrotation Yrotation Xrotation
							JOINT Head
							{
								OFFSET 0.000000 5.101515 0.000000
								CHANNELS 3 Zrotation Yrotation Xrotation
								JOINT HeadEnd
								{
									OFFSET 0.000000 11.655085 0.000000
									CHANNELS 3 Zrotation Yrotation Xrotation
									End Site
									{
										OFFSET 0.000000 0.000000 0.000000
									}
								}
							}
						}
					}
					JOINT RightShoulder
					{
						OFFSET -2.625389 11.175210 0.000000
						CHANNELS 3 Zrotation Yrotation Xrotation
						JOINT RightArm
						{
							OFFSET -0.000000 10.434715 -0.000000
							CHANNELS 3 Zrotation Yrotation Xrotation
							JOINT RightForeArm
							{
								OFFSET -0.000000 29.628420 0.000000
								CHANNELS 3 Zrotation Yrotation Xrotation
								JOINT RightHand
								{
									OFFSET -0.000000 22.857611 0.000000
									CHANNELS 3 Zrotation Yrotation Xrotation
									JOINT RightHandThumb1
									{
										OFFSET -2.867323 3.959563 2.944291
										CHANNELS 3 Zrotation Yrotation Xrotation
										JOINT RightHandThumb2
										{
											OFFSET 0.000000 3.350399 0.000000
											CHANNELS 3 Zrotation Yrotation Xrotation
											JOINT RightHandThumb3
											{
												OFFSET 0.000000 3.756509 -0.000000
												CHANNELS 3 Zrotation Yrotation Xrotation
												JOINT RightHandThumb4
												{
													OFFSET 0.000000 3.147345 0.000000
													CHANNELS 3 Zrotation Yrotation Xrotation
													End Site
													{
														OFFSET 0.000000 0.000000 0.000000
													}
												}
											}
										}
									}
									JOINT RightHandIndex1
									{
										OFFSET -0.086752 10.030893 2.345280
										CHANNELS 3 Zrotation Yrotation Xrotation
										JOINT RightHandIndex2
										{
											OFFSET -0.000000 4.061090 0.000000
											CHANNELS 3 Zrotation Yrotation Xrotation
											JOINT RightHandIndex3
											{
												OFFSET -0.000000 3.248873 0.000000
												CHANNELS 3 Zrotation Yrotation Xrotation
												JOINT RightHandIndex4
												{
													OFFSET 0.000000 2.639709 -0.000000
													CHANNELS 3 Zrotation Yrotation Xrotation
													End Site
													{
														OFFSET 0.000000 0.000000 0.000000
													}
												}
											}
										}
									}
									JOINT RightHandMiddle1
									{
										OFFSET 0.104102 9.502952 0.006768
										CHANNELS 3 Zrotation Yrotation Xrotation
										JOINT RightHandMiddle2
										{
											OFFSET 0.000000 4.568727 0.000000
											CHANNELS 3 Zrotation Yrotation Xrotation
											JOINT RightHandMiddle3
											{
												OFFSET 0.000000 3.654981 -0.000000
												CHANNELS 3 Zrotation Yrotation Xrotation
												JOINT RightHandMiddle4
												{
													OFFSET -0.000000 2.741236 -0.000000
													CHANNELS 3 Zrotation Yrotation Xrotation
													End Site
													{
														OFFSET 0.000000 0.000000 0.000000
													}
												}
											}
										}
									}
									JOINT RightHandRing1
									{
										OFFSET 0.086752 8.921708 -2.267442
										CHANNELS 3 Zrotation Yrotation Xrotation
										JOINT RightHandRing2
										{
											OFFSET -0.000000 4.061090 0.000000
											CHANNELS 3 Zrotation Yrotation Xrotation
											JOINT RightHandRing3
											{
												OFFSET 0.000000 3.654981 -0.000000
												CHANNELS 3 Zrotation Yrotation Xrotation
												JOINT RightHandRing4
												{
													OFFSET 0.000000 2.741236 -0.000000
													CHANNELS 3 Zrotation Yrotation Xrotation
													End Site
													{
														OFFSET 0.000000 0.000000 0.000000
													}
												}
											}
										}
									}
									JOINT RightHandPinky1
									{
										OFFSET -0.173504 7.976997 -4.467199
										CHANNELS 3 Zrotation Yrotation Xrotation
										JOINT RightHandPinky2
										{
											OFFSET 0.000000 3.350399 -0.000000
											CHANNELS 3 Zrotation Yrotation Xrotation
											JOINT RightHandPinky3
											{
												OFFSET -0.000000 2.842763 0.000000
												CHANNELS 3 Zrotation Yrotation Xrotation
												JOINT RightHandPinky4
												{
													OFFSET -0.000000 2.639709 0.000000
													CHANNELS 3 Zrotation Yrotation Xrotation
													End Site
													{
														OFFSET 0.000000 0.000000 0.000000
													}
												}
											}
										}
									}
									JOINT RightForeArmEnd
									{
										OFFSET 0.000000 0.000000 0.000000
										CHANNELS 3 Zrotation Yrotation Xrotation
										End Site
										{
											OFFSET 0.000000 0.000000 0.000000
										}
									}
								}
								JOINT RightArmEnd
								{
									OFFSET 0.000000 0.000000 0.000000
									CHANNELS 3 Zrotation Yrotation Xrotation
									End Site
									{
										OFFSET 0.000000 0.000000 0.000000
									}
								}
							}
						}
					}
					JOINT LeftShoulder
					{
						OFFSET 2.625389 11.175210 0.000000
						CHANNELS 3 Zrotation Yrotation Xrotation
						JOINT LeftArm
						{
							OFFSET 0.000000 10.813635 -0.000000
							CHANNELS 3 Zrotation Yrotation Xrotation
							JOINT LeftForeArm
							{
								OFFSET 0.000000 28.724781 0.000000
								CHANNELS 3 Zrotation Yrotation Xrotation
								JOINT LeftHand
								{
									OFFSET 0.644384 25.716167 -0.328871
									CHANNELS 3 Zrotation Yrotation Xrotation
									JOINT LeftHandThumb1
									{
										OFFSET 2.867323 3.959563 2.944291
										CHANNELS 3 Zrotation Yrotation Xrotation
										JOINT LeftHandThumb2
										{
											OFFSET 0.000000 3.350399 0.000000
											CHANNELS 3 Zrotation Yrotation Xrotation
											JOINT LeftHandThumb3
											{
												OFFSET -0.000000 3.756509 0.000000
												CHANNELS 3 Zrotation Yrotation Xrotation
												JOINT LeftHandThumb4
												{
													OFFSET -0.000000 3.100000 0.000000
													CHANNELS 3 Zrotation Yrotation Xrotation
													End Site
													{
														OFFSET 0.000000 0.000000 0.000000
													}
												}
											}
										}
									}
									JOINT LeftHandIndex1
									{
										OFFSET 0.086752 10.030893 2.345280
										CHANNELS 3 Zrotation Yrotation Xrotation
										JOINT LeftHandIndex2
										{
											OFFSET -0.000000 4.061090 -0.000000
											CHANNELS 3 Zrotation Yrotation Xrotation
											JOINT LeftHandIndex3
											{
												OFFSET 0.000000 3.248873 -0.000000
												CHANNELS 3 Zrotation Yrotation Xrotation
												JOINT LeftHandIndex4
												{
													OFFSET 0.000000 2.639709 -0.000000
													CHANNELS 3 Zrotation Yrotation Xrotation
													End Site
													{
														OFFSET 0.000000 0.000000 0.000000
													}
												}
											}
										}
									}
									JOINT LeftHandMiddle1
									{
										OFFSET -0.104102 9.502952 0.006768
										CHANNELS 3 Zrotation Yrotation Xrotation
										JOINT LeftHandMiddle2
										{
											OFFSET -0.000000 4.568727 -0.000000
											CHANNELS 3 Zrotation Yrotation Xrotation
											JOINT LeftHandMiddle3
											{
												OFFSET 0.000000 3.654981 0.000000
												CHANNELS 3 Zrotation Yrotation Xrotation
												JOINT LeftHandMiddle4
												{
													OFFSET 0.000000 2.741236 -0.000000
													CHANNELS 3 Zrotation Yrotation Xrotation
													End Site
													{
														OFFSET 0.000000 0.000000 0.000000
													}
												}
											}
										}
									}
									JOINT LeftHandRing1
									{
										OFFSET -0.086752 8.921708 -2.267442
										CHANNELS 3 Zrotation Yrotation Xrotation
										JOINT LeftHandRing2
										{
											OFFSET 0.000000 4.061090 0.000000
											CHANNELS 3 Zrotation Yrotation Xrotation
											JOINT LeftHandRing3
											{
												OFFSET 0.000000 3.654981 0.000000
												CHANNELS 3 Zrotation Yrotation Xrotation
												JOINT LeftHandRing4
												{
													OFFSET 0.000000 2.741236 0.000000
													CHANNELS 3 Zrotation Yrotation Xrotation
													End Site
													{
														OFFSET 0.000000 0.000000 0.000000
													}
												}
											}
										}
									}
									JOINT LeftHandPinky1
									{
										OFFSET 0.173504 7.976997 -4.467199
										CHANNELS 3 Zrotation Yrotation Xrotation
										JOINT LeftHandPinky2
										{
											OFFSET -0.000000 3.350399 -0.000000
											CHANNELS 3 Zrotation Yrotation Xrotation
											JOINT LeftHandPinky3
											{
												OFFSET 0.000000 2.842763 0.000000
												CHANNELS 3 Zrotation Yrotation Xrotation
												JOINT LeftHandPinky4
												{
													OFFSET -0.000000 2.639709 -0.000000
													CHANNELS 3 Zrotation Yrotation Xrotation
													End Site
													{
														OFFSET 0.000000 0.000000 0.000000
													}
												}
											}
										}
									}
									JOINT LeftForeArmEnd
									{
										OFFSET 0.000000 0.000000 0.000000
										CHANNELS 3 Zrotation Yrotation Xrotation
										End Site
										{
											OFFSET 0.000000 0.000000 0.000000
										}
									}
								}
								JOINT LeftArmEnd
								{
									OFFSET 0.000000 0.000000 0.000000
									CHANNELS 3 Zrotation Yrotation Xrotation
									End Site
									{
										OFFSET 0.000000 0.000000 0.000000
									}
								}
							}
						}
					}
				}
			}
		}
	}
	JOINT RightUpLeg
	{
		OFFSET -11.289943 0.000000 0.000000
		CHANNELS 3 Zrotation Yrotation Xrotation
		JOINT RightLeg
		{
			OFFSET 0.000000 -38.200325 0.000000
			CHANNELS 3 Zrotation Yrotation Xrotation
			JOINT RightFoot
			{
				OFFSET -0.000000 -39.900856 -0.000000
				CHANNELS 3 Zrotation Yrotation Xrotation
				JOINT RightToeBase
				{
					OFFSET 0.000000 0.000000 15.261641
					CHANNELS 3 Zrotation Yrotation Xrotation
					JOINT RightToeBaseEnd
					{
						OFFSET 0.000000 0.000000 7.370709
						CHANNELS 3 Zrotation Yrotation Xrotation
						End Site
						{
							OFFSET 0.000000 0.000000 0.000000
						}
					}
				}
				JOINT RightLegEnd
				{
					OFFSET 0.000000 0.000000 0.000000
					CHANNELS 3 Zrotation Yrotation Xrotation
					End Site
					{
						OFFSET 0.000000 0.000000 0.000000
					}
				}
			}
			JOINT RightUpLegEnd
			{
				OFFSET 0.000000 0.000000 0.000000
				CHANNELS 3 Zrotation Yrotation Xrotation
				End Site
				{
					OFFSET 0.000000 0.000000 0.000000
				}
			}
		}
	}
	JOINT LeftUpLeg
	{
		OFFSET 11.315661 -0.000000 0.000000
		CHANNELS 3 Zrotation Yrotation Xrotation
		JOINT LeftLeg
		{
			OFFSET -0.000000 -38.200325 -0.000000
			CHANNELS 3 Zrotation Yrotation Xrotation
			JOINT LeftFoot
			{
				OFFSET 0.000000 -39.900856 -0.000000
				CHANNELS 3 Zrotation Yrotation Xrotation
				JOINT LeftToeBase
				{
					OFFSET -0.000000 -0.000000 15.261641
					CHANNELS 3 Zrotation Yrotation Xrotation
					JOINT LeftToeBaseEnd
					{
						OFFSET 0.000000 -0.000000 7.539996
						CHANNELS 3 Zrotation Yrotation Xrotation
						End Site
						{
							OFFSET 0.000000 0.000000 0.000000
						}
					}
				}
				JOINT LeftLegEnd
				{
					OFFSET 0.000000 0.000000 0.000000
					CHANNELS 3 Zrotation Yrotation Xrotation
					End Site
					{
						OFFSET 0.000000 0.000000 0.000000
					}
				}
			}
			JOINT LeftUpLegEnd
			{
				OFFSET 0.000000 0.000000 0.000000
				CHANNELS 3 Zrotation Yrotation Xrotation
				End Site
				{
					OFFSET 0.000000 0.000000 0.000000
				}
			}
		}
	}
}
MOTION
Frames: 4
Frame Time: 0.016667
0.138201 88.602730 2.594343 0.305008 -0.048100 -10.112516 0.822773 0.107299 7.144109 -1.164397 0.402958 3.454676 -0.135708 -0.251341 4.612677 -1.624546 0.441176 5.746956 3.039975 -1.393485 6.184566 0.432065 -0.427124 -2.677137 0.284766 -0.730706 -20.723492 0.000000 0.000000 0.000000 90.980995 0.049191 8.930973 71.718102 -15.050510 -3.214141 -0.526350 20.008366 59.356712 -17.966663 -1.955830 -1.719737 15.875215 31.492846 66.139374 -3.839514 -4.604677 -8.464251 -2.758772 -2.972304 -5.583771 0.000000 0.000000 0.000000 -18.657003 -5.687436 14.123377 0.471683 0.509455 0.445760 0.085077 0.086765 0.540765 0.000000 0.000000 0.000000 -17.973377 -0.382489 8.271703 -0.302093 0.520151 0.137001 0.122643 0.018521 0.140891 0.000000 0.000000 0.000000 -16.450743 7.284180 0.602738 -0.032286 -1.006825 -0.351527 -0.083648 -0.030114 -0.231696 0.000000 0.000000 0.000000 -15.411558 15.275275 -6.905996 0.430037 -1.947796 -1.019042 0.318350 0.002697 -0.781758 0.000000 0.000000 0.000000 0.000000 0.000000 0.000000 0.000000 0.000000 0.000000 -89.334145 0.008096 3.493594 -71.318130 7.467818 -8.711545 0.160484 -13.976037 82.165062 21.552929 4.698024 1.994683 -14.919591 -31.842682 67.126358 2.763214 2.553947 -5.170056 1.841889 1.793164 -3.699147 0.000000 0.000000 0.000000 17.883215 -12.093706 19.591238 -0.351697 0.551894 -0.192050 -0.426137 0.089034 -0.260319 0.000000 0.000000 0.000000 17.131699 -6.586989 12.456137 -0.514929 0.516356 -0.133583 -1.012192 0.026229 -0.114656 0.000000 0.000000 0.000000 13.842447 2.124216 3.356870 -2.489120 -1.010394 0.347017 -2.516873 -0.025424 0.280975 0.000000 0.000000 0.000000 8.164906 12.255304 -6.049429 -4.804353 -1.915912 1.403611 -4.362277 0.098811 1.228667 0.000000 0.000000 0.000000 0.000000 0.000000 0.000000 0.000000 0.000000 0.000000 -0.685766 -9.160692 14.298065 -0.077019 -0.666484 5.202262 -3.241222 -8.004407 16.967745 -0.731591 0.845646 -18.790956 0.000000 0.000000 0.000000 0.000000 0.000000 0.000000 0.000000 0.000000 0.000000 -1.937741 -6.531116 8.174720 0.064836 0.304288 11.056341 3.898825 -1.746908 16.403570 0.212477 -0.422497 -20.629614 0.000000 0.000000 0.000000 0.000000 0.000000 0.000000 0.000000 0.000000 0.000000 
0.135188 88.598930 2.591547 0.315121 0.002156 -10.119577 0.842660 0.106594 7.145686 -1.181317 0.407697 3.475856 -0.143696 -0.225090 4.624671 -1.647739 0.450446 5.762735 2.996552 -1.379904 6.249174 0.439111 -0.430543 -2.648976 0.283630 -0.740148 -20.719906 0.000000 0.000000 0.000000 90.964294 0.038457 8.895972 71.588982 -14.824300 -3.277717 -0.550872 20.079178 60.021084 -17.954762 -1.882927 -1.451585 15.899036 31.480722 66.110893 -3.879122 -4.654077 -8.551772 -2.787167 -3.005376 -5.641526 0.000000 0.000000 0.000000 -18.360350 -5.740052 14.191038 0.445280 0.509855 0.448385 0.049091 0.087284 0.543866 0.000000 0.000000 0.000000 -17.658577 -0.436824 8.319721 -0.338119 0.520912 0.136845 0.101291 0.019045 0.141194 0.000000 0.000000 0.000000 -16.093428 7.226386 0.621156 -0.045908 -1.007741 -0.350602 -0.096416 -0.030741 -0.230933 0.000000 0.000000 0.000000 -15.057163 15.232730 -6.918618 0.458195 -1.950329 -1.010634 0.337351 0.000822 -0.771377 0.000000 0.000000 0.000000 0.000000 0.000000 0.000000 0.000000 0.000000 0.000000 -89.328224 0.022808 3.416673 -71.286819 6.881296 -8.689142 0.132880 -14.148792 82.759720 21.541975 4.381308 2.323258 -14.942993 -31.832354 67.099770 2.802320 2.598095 -5.250924 1.869684 1.823307 -3.754911 0.000000 0.000000 0.000000 17.579250 -12.048062 19.630672 -0.343378 0.549979 -0.199619 -0.426467 0.087385 -0.267387 0.000000 0.000000 0.000000 16.796053 -6.532886 12.498996 -0.514807 0.515665 -0.136431 -1.016972 0.025984 -0.117013 0.000000 0.000000 0.000000 13.426263 2.197479 3.405629 -2.534435 -1.009722 0.353376 -2.556812 -0.024622 0.285771 0.000000 0.000000 0.000000 7.711088 12.345900 -6.008069 -4.902922 -1.912405 1.423760 -4.445923 0.102468 1.245850 0.000000 0.000000 0.000000 0.000000 0.000000 0.000000 0.000000 0.000000 0.000000 -0.696716 -9.176269 14.297363 -0.076557 -0.663514 5.228331 -3.238693 -8.017772 16.958412 -0.728265 0.843838 -18.794453 0.000000 0.000000 0.000000 0.000000 0.000000 0.000000 0.000000 0.000000 0.000000 -1.940777 -6.536808 8.164915 0.064794 0.305706 11.074767 3.900458 -1.777003 16.397173 0.208644 -0.423992 -20.643753 0.000000 0.000000 0.000000 0.000000 0.000000 0.000000 0.000000 0.000000 0.000000 
0.131238 88.595314 2.589593 0.324549 0.053934 -10.125421 0.861063 0.106210 7.146161 -1.197628 0.412285 3.493582 -0.149976 -0.201092 4.636719 -1.670747 0.458661 5.776658 2.952273 -1.366508 6.313316 0.444270 -0.435423 -2.623678 0.282785 -0.749022 -20.718838 0.000000 0.000000 0.000000 90.947617 0.028276 8.859698 71.474426 -14.595964 -3.347535 -0.573595 20.146769 60.644897 -17.923880 -1.805599 -1.189635 15.924724 31.467745 66.080544 -3.921193 -4.706395 -8.644613 -2.817333 -3.040412 -5.703460 0.000000 0.000000 0.000000 -18.059498 -5.793732 14.253252 0.414638 0.510657 0.451119 0.008819 0.088138 0.546969 0.000000 0.000000 0.000000 -17.336361 -0.492584 8.365332 -0.376069 0.521722 0.136765 0.076973 0.019587 0.141571 0.000000 0.000000 0.000000 -15.725219 7.167231 0.644649 -0.058600 -1.008851 -0.349650 -0.108790 -0.031469 -0.230204 0.000000 0.000000 0.000000 -14.689632 15.189073 -6.920928 0.490673 -1.953652 -1.002242 0.359548 -0.001505 -0.760896 0.000000 0.000000 0.000000 0.000000 0.000000 0.000000 0.000000 0.000000 0.000000 -89.322006 0.036324 3.342479 -71.261780 6.298685 -8.671675 0.102805 -14.313836 83.296539 21.496365 4.056871 2.613953 -14.971066 -31.820360 67.067986 2.847211 2.650953 -5.345840 1.901833 1.859229 -3.820949 0.000000 0.000000 0.000000 17.252148 -11.999579 19.650572 -0.341319 0.548385 -0.207654 -0.433708 0.085957 -0.274742 0.000000 0.000000 0.000000 16.433317 -6.474862 12.527184 -0.521833 0.515094 -0.139405 -1.028407 0.025780 -0.119461 0.000000 0.000000 0.000000 12.976440 2.277084 3.448465 -2.590642 -1.009339 0.359593 -2.606330 -0.023976 0.290469 0.000000 0.000000 0.000000 7.222376 12.443995 -5.966906 -5.013108 -1.909840 1.443240 -4.541417 0.105390 1.262701 0.000000 0.000000 0.000000 0.000000 0.000000 0.000000 0.000000 0.000000 0.000000 -0.706929 -9.193415 14.296213 -0.076171 -0.660505 5.254830 -3.237663 -8.028492 16.950874 -0.724718 0.841411 -18.799814 0.000000 0.000000 0.000000 0.000000 0.000000 0.000000 0.000000 0.000000 0.000000 -1.943610 -6.543095 8.155321 0.064747 0.307374 11.092709 3.904397 -1.807884 16.390871 0.204928 -0.425038 -20.657862 0.000000 0.000000 0.000000 0.000000 0.000000 0.000000 0.000000 0.000000 0.000000 
0.126223 88.591827 2.588317 0.332932 0.106675 -10.129984 0.877844 0.106255 7.146002 -1.212904 0.416582 3.508732 -0.155098 -0.179156 4.647804 -1.692526 0.465505 5.788793 2.908550 -1.353332 6.372661 0.447964 -0.441121 -2.602747 0.282104 -0.757133 -20.718372 0.000000 0.000000 0.000000 90.930145 0.018781 8.823974 71.377197 -14.361556 -3.423507 -0.593610 20.215605 61.224686 -17.855844 -1.714485 -0.952647 15.953630 31.453505 66.046913 -3.967381 -4.763953 -8.746872 -2.850489 -3.078985 -5.772523 0.000000 0.000000 0.000000 -17.747055 -5.849696 14.301430 0.379865 0.511892 0.453899 -0.035282 0.089395 0.550223 0.000000 0.000000 0.000000 -16.999155 -0.550981 8.403012 -0.416042 0.522610 0.136835 0.049810 0.020163 0.142102 0.000000 0.000000 0.000000 -15.335557 7.105099 0.671044 -0.071041 -1.010145 -0.348847 -0.121383 -0.032295 -0.229603 0.000000 0.000000 0.000000 -14.293902 15.142353 -6.913068 0.526775 -1.957811 -0.994070 0.384376 -0.004357 -0.750533 0.000000 0.000000 0.000000 0.000000 0.000000 0.000000 0.000000 0.000000 0.000000 -89.314415 0.048414 3.274045 -71.243172 5.721094 -8.660216 0.069835 -14.473376 83.769516 21.403362 3.719615 2.851179 -15.005003 -31.806290 67.029968 2.899139 2.714705 -5.458199 1.939386 1.902567 -3.899703 0.000000 0.000000 0.000000 16.895796 -11.947016 19.643917 -0.345866 0.547130 -0.216280 -0.447708 0.084739 -0.282630 0.000000 0.000000 0.000000 16.036741 -6.411660 12.534881 -0.536864 0.514649 -0.142659 -1.046841 0.025616 -0.122105 0.000000 0.000000 0.000000 12.483379 2.364726 3.480038 -2.659560 -1.009244 0.365737 -2.667441 -0.023478 0.295165 0.000000 0.000000 0.000000 6.686844 12.551721 -5.930739 -5.137458 -1.908148 1.462138 -4.651695 0.107605 1.279406 0.000000 0.000000 0.000000 0.000000 0.000000 0.000000 0.000000 0.000000 0.000000 -0.715851 -9.210774 14.293794 -0.075902 -0.657502 5.282077 -3.237978 -8.037418 16.944176 -0.721063 0.838659 -18.806049 0.000000 0.000000 0.000000 0.000000 0.000000 0.000000 0.000000 0.000000 0.000000 -1.944928 -6.550004 8.145582 0.064728 0.309352 11.109985 3.910114 -1.840143 16.383396 0.201483 -0.425840 -20.670925 0.000000 0.000000 0.000000 0.000000 0.000000 0.000000 0.000000 0.000000 0.000000 
